<svg width="28" height="27" viewBox="0 0 28 27" fill="none" xmlns="http://www.w3.org/2000/svg">
<path fill-rule="evenodd" clip-rule="evenodd" d="M13.79 2.758C7.69719 2.758 2.758 7.69719 2.758 13.79H5.516C7.8008 13.79 9.653 15.6422 9.653 17.927V22.064C9.653 24.3488 7.8008 26.201 5.516 26.201H4.137C1.8522 26.201 0 24.3488 0 22.064V13.79C0 6.17399 6.17399 0 13.79 0C21.406 0 27.58 6.17399 27.58 13.79V22.064C27.58 24.3488 25.7278 26.201 23.443 26.201H22.064C19.7792 26.201 17.927 24.3488 17.927 22.064V17.927C17.927 15.6422 19.7792 13.79 22.064 13.79H24.822C24.822 7.69719 19.8828 2.758 13.79 2.758ZM24.822 16.548H22.064C21.3024 16.548 20.685 17.1654 20.685 17.927V22.064C20.685 22.8256 21.3024 23.443 22.064 23.443H23.443C24.2046 23.443 24.822 22.8256 24.822 22.064V16.548ZM2.758 16.548V22.064C2.758 22.8256 3.3754 23.443 4.137 23.443H5.516C6.2776 23.443 6.895 22.8256 6.895 22.064V17.927C6.895 17.1654 6.2776 16.548 5.516 16.548H2.758Z" fill="#3E4581"/>
<path fill-rule="evenodd" clip-rule="evenodd" d="M13.79 2.758C7.69719 2.758 2.758 7.69719 2.758 13.79H5.516C7.8008 13.79 9.653 15.6422 9.653 17.927V22.064C9.653 24.3488 7.8008 26.201 5.516 26.201H4.137C1.8522 26.201 0 24.3488 0 22.064V13.79C0 6.17399 6.17399 0 13.79 0C21.406 0 27.58 6.17399 27.58 13.79V22.064C27.58 24.3488 25.7278 26.201 23.443 26.201H22.064C19.7792 26.201 17.927 24.3488 17.927 22.064V17.927C17.927 15.6422 19.7792 13.79 22.064 13.79H24.822C24.822 7.69719 19.8828 2.758 13.79 2.758ZM24.822 16.548H22.064C21.3024 16.548 20.685 17.1654 20.685 17.927V22.064C20.685 22.8256 21.3024 23.443 22.064 23.443H23.443C24.2046 23.443 24.822 22.8256 24.822 22.064V16.548ZM2.758 16.548V22.064C2.758 22.8256 3.3754 23.443 4.137 23.443H5.516C6.2776 23.443 6.895 22.8256 6.895 22.064V17.927C6.895 17.1654 6.2776 16.548 5.516 16.548H2.758Z" fill="url(#paint0_linear_36_20345)"/>
<defs>
<linearGradient id="paint0_linear_36_20345" x1="0.494104" y1="2.03786" x2="29.0624" y2="2.02053" gradientUnits="userSpaceOnUse">
<stop stop-color="#AE67FA"/>
<stop offset="0.973958" stop-color="#F49867"/>
</linearGradient>
</defs>
</svg>
