<svg width="28" height="28" viewBox="0 0 28 28" fill="none" xmlns="http://www.w3.org/2000/svg">
<path fill-rule="evenodd" clip-rule="evenodd" d="M13.79 0C6.17399 0 0 6.17399 0 13.79C0 21.406 6.17399 27.58 13.79 27.58C21.406 27.58 27.58 21.406 27.58 13.79C27.58 6.17399 21.406 0 13.79 0ZM3.10556 11.032C2.87867 11.9135 2.758 12.8377 2.758 13.79C2.758 14.7423 2.87867 15.6665 3.10556 16.548H7.02507C6.93951 15.6545 6.895 14.7317 6.895 13.79C6.895 12.8483 6.93951 11.9255 7.02507 11.032H3.10556ZM4.23389 8.274H7.43719C7.7295 6.86259 8.13282 5.57147 8.62945 4.45403C8.71256 4.26705 8.7989 4.08352 8.8885 3.90394C6.94039 4.87167 5.31893 6.39827 4.23389 8.274ZM9.79705 11.032C9.70336 11.9112 9.653 12.8346 9.653 13.79C9.653 14.7454 9.70336 15.6688 9.79705 16.548H17.783C17.8766 15.6688 17.927 14.7454 17.927 13.79C17.927 12.8346 17.8766 11.9112 17.783 11.032H9.79705ZM17.318 8.274H10.262C10.5015 7.26409 10.8028 6.35478 11.1497 5.57416C11.602 4.55651 12.1049 3.81835 12.5936 3.35326C13.0752 2.89493 13.4771 2.758 13.79 2.758C14.1029 2.758 14.5048 2.89493 14.9864 3.35326C15.4751 3.81835 15.978 4.55651 16.4303 5.57416C16.7772 6.35478 17.0785 7.26409 17.318 8.274ZM20.5549 11.032C20.6405 11.9255 20.685 12.8483 20.685 13.79C20.685 14.7317 20.6405 15.6545 20.5549 16.548H24.4744C24.7013 15.6665 24.822 14.7423 24.822 13.79C24.822 12.8377 24.7013 11.9135 24.4744 11.032H20.5549ZM23.3461 8.274H20.1428C19.8505 6.86259 19.4472 5.57147 18.9505 4.45403C18.8674 4.26705 18.7811 4.08352 18.6915 3.90394C20.6396 4.87167 22.2611 6.39828 23.3461 8.274ZM8.8885 23.6761C6.94039 22.7083 5.31893 21.1817 4.23389 19.306H7.43719C7.7295 20.7174 8.13282 22.0085 8.62945 23.126C8.71256 23.3129 8.7989 23.4965 8.8885 23.6761ZM11.1497 22.0058C10.8028 21.2252 10.5015 20.3159 10.262 19.306H17.318C17.0785 20.3159 16.7772 21.2252 16.4303 22.0058C15.978 23.0235 15.4751 23.7617 14.9864 24.2267C14.5048 24.6851 14.1029 24.822 13.79 24.822C13.4771 24.822 13.0752 24.6851 12.5936 24.2267C12.1049 23.7617 11.602 23.0235 11.1497 22.0058ZM18.9505 23.126C19.4472 22.0085 19.8505 20.7174 20.1428 19.306H23.3461C22.2611 21.1817 20.6396 22.7083 18.6915 23.6761C18.7811 23.4965 18.8674 23.3129 18.9505 23.126Z" fill="#3E4581"/>
<path fill-rule="evenodd" clip-rule="evenodd" d="M13.79 0C6.17399 0 0 6.17399 0 13.79C0 21.406 6.17399 27.58 13.79 27.58C21.406 27.58 27.58 21.406 27.58 13.79C27.58 6.17399 21.406 0 13.79 0ZM3.10556 11.032C2.87867 11.9135 2.758 12.8377 2.758 13.79C2.758 14.7423 2.87867 15.6665 3.10556 16.548H7.02507C6.93951 15.6545 6.895 14.7317 6.895 13.79C6.895 12.8483 6.93951 11.9255 7.02507 11.032H3.10556ZM4.23389 8.274H7.43719C7.7295 6.86259 8.13282 5.57147 8.62945 4.45403C8.71256 4.26705 8.7989 4.08352 8.8885 3.90394C6.94039 4.87167 5.31893 6.39827 4.23389 8.274ZM9.79705 11.032C9.70336 11.9112 9.653 12.8346 9.653 13.79C9.653 14.7454 9.70336 15.6688 9.79705 16.548H17.783C17.8766 15.6688 17.927 14.7454 17.927 13.79C17.927 12.8346 17.8766 11.9112 17.783 11.032H9.79705ZM17.318 8.274H10.262C10.5015 7.26409 10.8028 6.35478 11.1497 5.57416C11.602 4.55651 12.1049 3.81835 12.5936 3.35326C13.0752 2.89493 13.4771 2.758 13.79 2.758C14.1029 2.758 14.5048 2.89493 14.9864 3.35326C15.4751 3.81835 15.978 4.55651 16.4303 5.57416C16.7772 6.35478 17.0785 7.26409 17.318 8.274ZM20.5549 11.032C20.6405 11.9255 20.685 12.8483 20.685 13.79C20.685 14.7317 20.6405 15.6545 20.5549 16.548H24.4744C24.7013 15.6665 24.822 14.7423 24.822 13.79C24.822 12.8377 24.7013 11.9135 24.4744 11.032H20.5549ZM23.3461 8.274H20.1428C19.8505 6.86259 19.4472 5.57147 18.9505 4.45403C18.8674 4.26705 18.7811 4.08352 18.6915 3.90394C20.6396 4.87167 22.2611 6.39828 23.3461 8.274ZM8.8885 23.6761C6.94039 22.7083 5.31893 21.1817 4.23389 19.306H7.43719C7.7295 20.7174 8.13282 22.0085 8.62945 23.126C8.71256 23.3129 8.7989 23.4965 8.8885 23.6761ZM11.1497 22.0058C10.8028 21.2252 10.5015 20.3159 10.262 19.306H17.318C17.0785 20.3159 16.7772 21.2252 16.4303 22.0058C15.978 23.0235 15.4751 23.7617 14.9864 24.2267C14.5048 24.6851 14.1029 24.822 13.79 24.822C13.4771 24.822 13.0752 24.6851 12.5936 24.2267C12.1049 23.7617 11.602 23.0235 11.1497 22.0058ZM18.9505 23.126C19.4472 22.0085 19.8505 20.7174 20.1428 19.306H23.3461C22.2611 21.1817 20.6396 22.7083 18.6915 23.6761C18.7811 23.4965 18.8674 23.3129 18.9505 23.126Z" fill="url(#paint0_linear_36_20358)"/>
<defs>
<linearGradient id="paint0_linear_36_20358" x1="0.494104" y1="2.14511" x2="29.0624" y2="2.12865" gradientUnits="userSpaceOnUse">
<stop stop-color="#AE67FA"/>
<stop offset="0.973958" stop-color="#F49867"/>
</linearGradient>
</defs>
</svg>
