<svg width="28" height="28" viewBox="0 0 28 28" fill="none" xmlns="http://www.w3.org/2000/svg">
<path d="M19.4849 5.8506C20.0264 5.8506 20.5557 5.69032 21.0063 5.38997L24.9703 2.7473V15.45C24.9703 16.2074 24.3563 16.8213 23.5989 16.8213H22.2276V19.564H23.5989C25.8711 19.564 27.713 17.7221 27.713 15.45V2.7473C27.713 0.556728 25.2716 -0.749865 23.4489 0.465245L19.4849 3.10791H9.88551C7.6134 3.10791 5.77148 4.94983 5.77148 7.22194V8.59329H8.51417V7.22194C8.51417 6.46457 9.12814 5.8506 9.88551 5.8506H19.4849Z" fill="#3E4581"/>
<path d="M19.4849 5.8506C20.0264 5.8506 20.5557 5.69032 21.0063 5.38997L24.9703 2.7473V15.45C24.9703 16.2074 24.3563 16.8213 23.5989 16.8213H22.2276V19.564H23.5989C25.8711 19.564 27.713 17.7221 27.713 15.45V2.7473C27.713 0.556728 25.2716 -0.749865 23.4489 0.465245L19.4849 3.10791H9.88551C7.6134 3.10791 5.77148 4.94983 5.77148 7.22194V8.59329H8.51417V7.22194C8.51417 6.46457 9.12814 5.8506 9.88551 5.8506H19.4849Z" fill="url(#paint0_linear_36_20329)"/>
<path fill-rule="evenodd" clip-rule="evenodd" d="M5.42951 22.9077C5.91582 22.5186 6.52006 22.3067 7.14285 22.3067H18.1136C18.871 22.3067 19.4849 21.6927 19.4849 20.9353V12.7073C19.4849 11.9499 18.871 11.3359 18.1136 11.3359H4.40016C3.64279 11.3359 3.02882 11.9499 3.02882 12.7073V24.8283L5.42951 22.9077ZM7.14285 25.0494H18.1136C20.3857 25.0494 22.2276 23.2075 22.2276 20.9353V12.7073C22.2276 10.4352 20.3857 8.59326 18.1136 8.59326H4.40016C2.12805 8.59326 0.286133 10.4352 0.286133 12.7073V24.8283C0.286133 27.128 2.94635 28.4066 4.74216 26.9699L7.14285 25.0494Z" fill="#3E4581"/>
<path fill-rule="evenodd" clip-rule="evenodd" d="M5.42951 22.9077C5.91582 22.5186 6.52006 22.3067 7.14285 22.3067H18.1136C18.871 22.3067 19.4849 21.6927 19.4849 20.9353V12.7073C19.4849 11.9499 18.871 11.3359 18.1136 11.3359H4.40016C3.64279 11.3359 3.02882 11.9499 3.02882 12.7073V24.8283L5.42951 22.9077ZM7.14285 25.0494H18.1136C20.3857 25.0494 22.2276 23.2075 22.2276 20.9353V12.7073C22.2276 10.4352 20.3857 8.59326 18.1136 8.59326H4.40016C2.12805 8.59326 0.286133 10.4352 0.286133 12.7073V24.8283C0.286133 27.128 2.94635 28.4066 4.74216 26.9699L7.14285 25.0494Z" fill="url(#paint1_linear_36_20329)"/>
<path fill-rule="evenodd" clip-rule="evenodd" d="M5.77148 16.8215C5.77148 16.0642 6.38546 15.4502 7.14283 15.4502H15.3709C16.1283 15.4502 16.7422 16.0642 16.7422 16.8215C16.7422 17.5789 16.1283 18.1929 15.3709 18.1929H7.14283C6.38546 18.1929 5.77148 17.5789 5.77148 16.8215Z" fill="#3E4581"/>
<path fill-rule="evenodd" clip-rule="evenodd" d="M5.77148 16.8215C5.77148 16.0642 6.38546 15.4502 7.14283 15.4502H15.3709C16.1283 15.4502 16.7422 16.0642 16.7422 16.8215C16.7422 17.5789 16.1283 18.1929 15.3709 18.1929H7.14283C6.38546 18.1929 5.77148 17.5789 5.77148 16.8215Z" fill="url(#paint2_linear_36_20329)"/>
<defs>
<linearGradient id="paint0_linear_36_20329" x1="6.16457" y1="1.52165" x2="28.8923" y2="1.50696" gradientUnits="userSpaceOnUse">
<stop stop-color="#AE67FA"/>
<stop offset="0.973958" stop-color="#F49867"/>
</linearGradient>
<linearGradient id="paint1_linear_36_20329" x1="0.679221" y1="10.0697" x2="23.4069" y2="10.0546" gradientUnits="userSpaceOnUse">
<stop stop-color="#AE67FA"/>
<stop offset="0.973958" stop-color="#F49867"/>
</linearGradient>
<linearGradient id="paint2_linear_36_20329" x1="5.96803" y1="15.6635" x2="17.3318" y2="15.6373" gradientUnits="userSpaceOnUse">
<stop stop-color="#AE67FA"/>
<stop offset="0.973958" stop-color="#F49867"/>
</linearGradient>
</defs>
</svg>
