<svg width="25" height="28" viewBox="0 0 25 28" fill="none" xmlns="http://www.w3.org/2000/svg">
<path fill-rule="evenodd" clip-rule="evenodd" d="M4.137 2.758C3.3754 2.758 2.758 3.3754 2.758 4.137V23.443C2.758 24.2046 3.3754 24.822 4.137 24.822H20.685C21.4466 24.822 22.064 24.2046 22.064 23.443V13.79C22.064 13.0284 22.6814 12.411 23.443 12.411C24.2046 12.411 24.822 13.0284 24.822 13.79V23.443C24.822 25.7278 22.9698 27.58 20.685 27.58H4.137C1.8522 27.58 0 25.7278 0 23.443V4.137C0 1.8522 1.8522 0 4.137 0H12.411C13.1726 0 13.79 0.617399 13.79 1.379C13.79 2.1406 13.1726 2.758 12.411 2.758H4.137Z" fill="#3E4581"/>
<path fill-rule="evenodd" clip-rule="evenodd" d="M4.137 2.758C3.3754 2.758 2.758 3.3754 2.758 4.137V23.443C2.758 24.2046 3.3754 24.822 4.137 24.822H20.685C21.4466 24.822 22.064 24.2046 22.064 23.443V13.79C22.064 13.0284 22.6814 12.411 23.443 12.411C24.2046 12.411 24.822 13.0284 24.822 13.79V23.443C24.822 25.7278 22.9698 27.58 20.685 27.58H4.137C1.8522 27.58 0 25.7278 0 23.443V4.137C0 1.8522 1.8522 0 4.137 0H12.411C13.1726 0 13.79 0.617399 13.79 1.379C13.79 2.1406 13.1726 2.758 12.411 2.758H4.137Z" fill="url(#paint0_linear_36_20364)"/>
<path fill-rule="evenodd" clip-rule="evenodd" d="M6.98305 13.3266C6.77206 13.5376 6.6352 13.8113 6.593 14.1067L5.94294 18.6572C5.81292 19.5673 6.593 20.3474 7.5031 20.2173L12.0536 19.5673C12.3489 19.5251 12.6227 19.3882 12.8336 19.1772L23.2347 8.77617C24.8503 7.16057 24.8503 4.54116 23.2347 2.92557C21.6191 1.30997 18.9997 1.30997 17.3841 2.92557L6.98305 13.3266ZM18.3592 9.75127L11.2085 16.902L8.93325 17.227L9.25828 14.9518L16.409 7.80107L18.3592 9.75127ZM20.3094 7.80107L18.3592 5.85087L19.3343 4.87577C19.8728 4.33723 20.746 4.33723 21.2845 4.87577C21.823 5.4143 21.823 6.28743 21.2845 6.82597L20.3094 7.80107Z" fill="#3E4581"/>
<path fill-rule="evenodd" clip-rule="evenodd" d="M6.98305 13.3266C6.77206 13.5376 6.6352 13.8113 6.593 14.1067L5.94294 18.6572C5.81292 19.5673 6.593 20.3474 7.5031 20.2173L12.0536 19.5673C12.3489 19.5251 12.6227 19.3882 12.8336 19.1772L23.2347 8.77617C24.8503 7.16057 24.8503 4.54116 23.2347 2.92557C21.6191 1.30997 18.9997 1.30997 17.3841 2.92557L6.98305 13.3266ZM18.3592 9.75127L11.2085 16.902L8.93325 17.227L9.25828 14.9518L16.409 7.80107L18.3592 9.75127ZM20.3094 7.80107L18.3592 5.85087L19.3343 4.87577C19.8728 4.33723 20.746 4.33723 21.2845 4.87577C21.823 5.4143 21.823 6.28743 21.2845 6.82597L20.3094 7.80107Z" fill="url(#paint1_linear_36_20364)"/>
<defs>
<linearGradient id="paint0_linear_36_20364" x1="0.444694" y1="2.14511" x2="26.1561" y2="2.13178" gradientUnits="userSpaceOnUse">
<stop stop-color="#AE67FA"/>
<stop offset="0.973958" stop-color="#F49867"/>
</linearGradient>
<linearGradient id="paint1_linear_36_20364" x1="6.26046" y1="3.15413" x2="25.4417" y2="3.14308" gradientUnits="userSpaceOnUse">
<stop stop-color="#AE67FA"/>
<stop offset="0.973958" stop-color="#F49867"/>
</linearGradient>
</defs>
</svg>
