<svg width="27" height="28" viewBox="0 0 27 28" fill="none" xmlns="http://www.w3.org/2000/svg">
<path fill-rule="evenodd" clip-rule="evenodd" d="M0 4.137C0 1.8522 1.8522 0 4.137 0H17.927C19.7283 0 21.2607 1.1512 21.8286 2.758H22.064C24.3488 2.758 26.201 4.6102 26.201 6.895V9.46048C26.201 11.4325 24.8091 13.1304 22.8753 13.5171L13.5196 15.3883C12.875 15.5172 12.411 16.0832 12.411 16.7405V16.917C13.2354 17.3938 13.79 18.2852 13.79 19.306V24.822C13.79 26.3452 12.5552 27.58 11.032 27.58C9.5088 27.58 8.274 26.3452 8.274 24.822V19.306C8.274 18.2852 8.82863 17.3938 9.653 16.917V16.7405C9.653 14.7685 11.0449 13.0706 12.9787 12.6839L22.3344 10.8127C22.979 10.6838 23.443 10.1178 23.443 9.46048V6.895C23.443 6.1334 22.8256 5.516 22.064 5.516C22.064 7.8008 20.2118 9.653 17.927 9.653H4.137C1.8522 9.653 0 7.8008 0 5.516V4.137ZM19.306 4.137C19.306 3.3754 18.6886 2.758 17.927 2.758H4.137C3.3754 2.758 2.758 3.3754 2.758 4.137V5.516C2.758 6.2776 3.3754 6.895 4.137 6.895H17.927C18.6886 6.895 19.306 6.2776 19.306 5.516V4.137Z" fill="#3E4581"/>
<path fill-rule="evenodd" clip-rule="evenodd" d="M0 4.137C0 1.8522 1.8522 0 4.137 0H17.927C19.7283 0 21.2607 1.1512 21.8286 2.758H22.064C24.3488 2.758 26.201 4.6102 26.201 6.895V9.46048C26.201 11.4325 24.8091 13.1304 22.8753 13.5171L13.5196 15.3883C12.875 15.5172 12.411 16.0832 12.411 16.7405V16.917C13.2354 17.3938 13.79 18.2852 13.79 19.306V24.822C13.79 26.3452 12.5552 27.58 11.032 27.58C9.5088 27.58 8.274 26.3452 8.274 24.822V19.306C8.274 18.2852 8.82863 17.3938 9.653 16.917V16.7405C9.653 14.7685 11.0449 13.0706 12.9787 12.6839L22.3344 10.8127C22.979 10.6838 23.443 10.1178 23.443 9.46048V6.895C23.443 6.1334 22.8256 5.516 22.064 5.516C22.064 7.8008 20.2118 9.653 17.927 9.653H4.137C1.8522 9.653 0 7.8008 0 5.516V4.137ZM19.306 4.137C19.306 3.3754 18.6886 2.758 17.927 2.758H4.137C3.3754 2.758 2.758 3.3754 2.758 4.137V5.516C2.758 6.2776 3.3754 6.895 4.137 6.895H17.927C18.6886 6.895 19.306 6.2776 19.306 5.516V4.137Z" fill="url(#paint0_linear_36_20352)"/>
<defs>
<linearGradient id="paint0_linear_36_20352" x1="0.469399" y1="2.14511" x2="27.6093" y2="2.13026" gradientUnits="userSpaceOnUse">
<stop stop-color="#AE67FA"/>
<stop offset="0.973958" stop-color="#F49867"/>
</linearGradient>
</defs>
</svg>
